<?xml version="1.0" encoding="UTF-8"?><svg id="Camada_1" xmlns="http://www.w3.org/2000/svg" viewBox="0 0 1200 1200"><defs><style>.cls-1{fill:#fff;}</style></defs><g id="aa0vgF.tif"><path class="cls-1" d="m818.31,71.79c-3.03.38-6.05,1.08-9.08,1.09-53.5.13-107,.21-160.5.23-81.19.03-162.38.02-243.57-.06-4.06,0-8.12-.82-12.18-1.26,141.78,0,283.56,0,425.33,0Z"/><path class="cls-1" d="m1133.35,805.96c-.25-4.08-.72-8.17-.72-12.25-.04-132-.04-264.01,0-396.01,0-2.16.47-4.32.73-6.48v414.74Z"/><path class="cls-1" d="m1131.08,599.89c0,63.83-.02,127.66.02,191.48,0,6.91.13,13.83.58,20.72.29,4.5-1.24,7.81-4.37,10.95-31.08,31.1-61.98,62.38-93.1,93.45-56.71,56.62-113.54,113.12-170.31,169.67-12.29,12.25-24.6,24.49-36.78,36.84-2.87,2.91-5.94,4.23-10.12,4.23-141.78-.09-283.56-.08-425.34,0-4.02,0-6.88-1.31-9.68-4.11-98.16-97.97-196.38-195.87-294.6-293.79-10.31-10.28-10.23-10.28-10.23-24.82.04-101.45.06-202.9.05-304.35,0-37.93-.02-75.86-.18-113.79-.02-4.11,1.74-6.86,4.46-9.58,60.54-60.51,121.02-121.07,181.54-181.6,30.26-30.27,60.53-60.52,90.85-90.72,9.27-9.23,18.78-18.23,28.11-27.4,2.57-2.52,5.35-3.65,9.04-3.59,23.36.36,46.72.71,70.08.72,113.49.05,226.99,0,340.48-.04,4.11,0,8.25-.14,12.31-.68,6.19-.82,10.79,1.13,15.28,5.64,46.77,47.01,93.69,93.86,140.65,140.68,49.26,49.1,98.44,98.3,148.1,147,9.62,9.44,16.51,18.72,13.14,32.78,0,66.77,0,133.54,0,200.31Zm-526.63,459.48v-.07c59.85,0,119.71-.17,179.56.2,8.46.05,14.26-2.3,20.28-8.34,83.45-83.76,167.11-167.31,251.01-250.63,6.86-6.81,9.76-13.3,9.71-23.18-.46-91.76-.27-183.53-.26-275.3,0-29.27.08-58.53-.05-87.8-.01-2.42-.6-5.55-2.15-7.13-19.7-20.01-39.64-39.8-59.51-59.65-68.36-68.28-136.7-136.58-205.14-204.78-1.46-1.45-4.02-2.54-6.07-2.54-91.19-.1-182.37-.05-273.56-.03-32.5,0-65,.1-97.5-.15-4.98-.04-8.46,1.33-11.97,4.84-87.22,87.27-174.56,174.42-261.78,261.69-1.54,1.54-2.67,4.26-2.68,6.44-.21,28.23-.21,56.47-.21,84.71.02,96.18.04,192.36.2,288.54,0,2.5.9,5.71,2.58,7.39,87.08,87.2,174.31,174.25,261.42,261.43,3.2,3.2,6.39,4.45,10.82,4.44,61.77-.11,123.53-.07,185.3-.07Z"/><path class="cls-1" d="m765.85,207.03c-184.38,185.54-368.78,371.1-553.18,556.66-.68-.47-1.36-.94-2.03-1.4-.12-1.67-.34-3.34-.34-5.02-.02-104.99-.05-209.98.08-314.97,0-2.5,1.02-5.68,2.73-7.39,51.92-52.05,103.99-103.95,156.02-155.9,23.1-23.06,46.1-46.23,69.34-69.15,1.82-1.79,5.17-2.86,7.81-2.86,98.23-.09,196.45-.02,294.68.03,8.48,0,16.96,0,24.89,0Zm-432.76,189.48c-10,10.17-19.18,19.66-28.57,28.95-2.32,2.29-2.5,3.99-.9,6.8,14.86,26.02,29.58,52.11,44.31,78.2,6.44,11.4,6.18,12.59-4.06,21.02-.34.28-.68.56-1.04.82-4.19,3.04-6.57,2.66-9.56-1.58-.76-1.08-1.41-2.23-2.06-3.38-14.64-25.97-29.27-51.94-43.92-77.9-.67-1.19-1.56-2.27-2.61-3.76-1.73,1.6-3.03,2.74-4.26,3.97-8.33,8.3-16.55,16.73-25.03,24.87-2.48,2.38-2.76,4.15-1.07,7.12,17.58,30.89,35.21,61.76,52.39,92.87,4.85,8.79,11.62,11.84,21.06,10.7,5.9-.71,10.27-4.02,14.28-8.05,11.93-11.98,23.93-23.9,35.81-35.93,4.33-4.39,8.65-8.83,12.55-13.59,6.98-8.51,7.64-17.42,1.99-27.25-18.5-32.22-36.65-64.64-54.95-96.97-1.14-2.01-2.46-3.91-4.36-6.9Zm230.62-82.53c-2.11,1.99-4.06,3.75-5.92,5.6-10.2,10.17-20.35,20.39-30.58,30.53-8.12,8.04-9.84,7.83-15.64-2.24-9.67-16.79-19.17-33.68-28.8-50.5-1.59-2.78-1.54-5.35.57-7.71,2.45-2.73,5-5.38,7.6-7.98,10.07-10.09,20.21-20.11,30.23-30.25.99-1,2.14-2.86,1.84-3.96-2.32-8.56-12.85-14.89-21.26-12.03-5.39,1.83-10.94,4.71-15.04,8.58-14.01,13.2-27.53,26.93-41.02,40.67-8.36,8.51-9.86,19.06-4.05,29.52,14.68,26.44,29.58,52.77,44.55,79.04,1.78,3.13,4.37,5.9,7,8.42,4.09,3.93,9.1,4.94,14.69,3.69,6.14-1.37,10.96-4.82,15.29-9.11,9.71-9.62,19.43-19.24,29.05-28.95,4.34-4.38,8.74-8.75,12.63-13.52,9.96-12.25,9.55-28.61-1.14-39.8Zm-119.91,43.08l-1.84-.73c-1.23,1.66-2.27,3.5-3.71,4.94-20.01,20.11-39.98,40.24-60.19,60.14-3.26,3.21-3.37,5.52-1.18,9.32,11.97,20.72,23.68,41.58,35.48,62.4,1.56,2.75,3.11,5.5,4.65,8.21.64-.3.96-.36,1.16-.56,10.06-9.88,20.13-19.74,30.08-29.74.62-.62.65-2.55.16-3.42-8.17-14.6-16.31-29.22-24.86-43.59-1.92-3.22-1.28-4.84.99-7.07,9.75-9.57,19.46-19.2,29.07-28.91,6.05-6.11,5.14-4.4,1.52-10.81-1.23-2.17-2.51-4.31-3.73-6.49-2.55-4.56-5.07-9.13-7.6-13.69Zm-79.57,50.81c22.95-23.24,45.62-46.21,68.81-69.7-4.58-8-9.67-16.87-15.6-27.22-22.92,23.43-44.81,45.77-66.6,68.2-.77.79-1.29,2.82-.83,3.67,4.55,8.34,9.34,16.55,14.21,25.05Z"/><path class="cls-1" d="m468.27,993.32c-7.04,0-13.34.22-19.6-.17-1.41-.09-3.17-2.03-3.96-3.54-8.56-16.38-17.57-32.57-25.24-49.36-9.72-21.27-16.87-43.57-21.42-66.51-3.34-16.81-5.83-33.84-7.69-50.87-1.45-13.25-2.17-26.7-1.73-40.02.54-16.54,2.19-33.09,4.12-49.54,4.03-34.5,13.78-67.51,27.47-99.37,22.27-51.83,54.52-96.64,96.31-134.43,44.11-39.9,94.52-68.95,151.74-85.77,23.72-6.98,47.82-12.43,72.55-13.73,22.57-1.19,45.29-2.54,67.79-1.28,29.49,1.65,58.48,7.6,86.76,16.5,33.23,10.45,64.56,24.89,94.09,43.46,6.38,4.01,9.8,7.96,8.52,15.63-.61,3.68-.11,7.56-.11,12.38-50.66-36.32-106.21-58.44-167.11-66.85-1.52,11.25-2.52,21.77-4.41,32.12-6.22,34.12-16.96,66.81-31.88,98.11-1.71,3.59.72,4.41,2.78,5.67,10.78,6.59,21.86,12.73,32.33,19.76,30.07,20.2,58.43,42.59,84.43,67.89,6.13,5.96,6.09,6.08,12.18.01,22.41-22.3,44.8-44.62,67.19-66.95,1.29-1.29,2.47-2.69,4.61-5.04,0,9.03.16,16.73-.13,24.41-.06,1.61-1.53,3.4-2.78,4.69-20.23,20.73-40.53,41.39-61.31,62.56,1.1,1.28,2.93,3.5,4.86,5.63,21.07,23.26,40.27,47.98,57.07,74.47,2.32,3.65,1.52,9.26,2.2,13.96.63,4.29-.85,7.53-4.1,10.48-2.39,2.17-3.48,1.86-5.03-.62-6-9.58-11.91-19.23-18.21-28.62-14.37-21.41-30.82-41.17-48-60.36-2.79-3.11-4.22-1.02-5.98.74-14.77,14.76-29.49,29.58-44.28,44.31-23.75,23.66-47.55,47.28-71.33,70.92-.4.4-.74.86-1.45,1.69,5.04,5.01,10.01,9.94,14.97,14.88,21.68,21.58,43.32,43.19,65.08,64.68,2.67,2.64,2.7,4.27-.26,6.62-3.41,2.72-6.42,5.94-9.89,9.2-27.6-27.63-54.88-54.94-82.69-82.78-40.62,41.2-80.96,82.12-121.99,123.73,23.12,22.43,50.07,42.21,78.16,60.56-.12.34-.25.69-.37,1.03-3.88,0-7.75.05-11.62-.01-3.97-.06-7.99-.68-11.89-.24-5.74.66-10.18-1.28-14.46-4.86-16.8-14.03-33.74-27.89-50.64-41.81-.89-.73-1.84-1.39-2.96-2.22-1.09.98-2.09,1.8-3,2.72-14.38,14.32-28.68,28.73-43.21,42.89-1.76,1.71-4.74,2.84-7.23,3-6.69.41-13.42.14-21.26.14,2.09-2.24,3.48-3.82,4.98-5.31,17.58-17.57,35.08-35.22,52.83-52.61,3.21-3.14,2.62-4.95,0-7.92-16.3-18.54-32.87-36.87-48.5-55.96-16.22-19.81-29.89-41.48-42.29-63.88-1.97-3.56-3.74-3.43-6.92-2.21-17.11,6.59-33.98,14.02-51.52,19.18-18.09,5.33-36.83,8.48-55.32,12.39-4.99,1.05-10.13,1.47-15.21,2.03-2.57.28-3.66,1.24-3.04,3.99,4.17,18.44,7.38,37.14,12.59,55.28,9.38,32.65,23.9,63.1,42.56,91.54.62.94,1.05,2.01,1.89,3.61Zm304.71-199.03c.33.82.31.65.22.55-29.32-29.32-58.67-58.61-87.93-87.99-2.03-2.04-3.01-1.12-4.59.41-30.52,29.4-63.94,54.97-100.82,75.93-7.22,4.11-14.51,8.11-22.17,12.38,24.94,45.61,55.97,86.1,92.41,122.22,40.94-41.15,81.66-82.08,122.88-123.5Zm12.22-224.22c-.68,1-1.13,1.56-1.46,2.18-22.91,42.93-51.01,82.08-85.07,116.88-2.39,2.44-1.95,3.94.24,6.13,27.83,27.69,55.58,55.45,83.38,83.18,1.42,1.42,3,2.67,3.96,3.52,40.29-40.34,80.25-80.36,120.4-120.55-36.18-35.56-76.18-66.75-121.45-91.33Zm-277.27-38.43c-1.87,21.01-4.77,40.97-5.1,60.97-.3,18.27,1.08,36.75,3.67,54.85,6.4,44.62,20.72,86.91,40.35,127.44,1.63,3.37,3.19,4.1,6.73,2.17,27.37-14.97,53.78-31.41,78.04-51.08,13.19-10.69,25.92-21.97,37.78-32.07-53.8-54.07-107.01-107.56-161.47-162.3Zm260.88,29.59c-77.43-38.07-157.63-56.13-244.37-40.94,2.63,2.89,4.6,5.23,6.76,7.38,28.28,28.27,56.6,56.5,84.88,84.77,21.11,21.1,42.23,42.19,63.23,63.39,2.91,2.93,4.69,3.26,7.57-.19,6.97-8.34,14.53-16.19,21.58-24.46,23.35-27.39,43.14-57.19,60.35-89.95Zm-221.63-63.32c1.53-.1,3.07-.29,4.6-.3,21.14-.16,42.38-1.61,63.41-.11,25.88,1.85,51.44,6.83,76.5,14.04,27.72,7.98,54.51,18.24,80.36,30.99,2.48,1.22,4.72,2.96,6.6-1.3,17.4-39.38,30.19-80,33.64-123.65-46.98-3.64-93.3.42-138.65,13.76-46.5,13.68-88.52,36.07-126.47,66.55Zm-61.45,61.7c-58.8,77.41-84.91,164.23-77.32,261.08,22.6-.81,69.79-9.23,124.05-33.38-35.59-71.69-54.01-147.01-46.73-227.7Z"/></g></svg>