<?xml version="1.0" encoding="UTF-8"?><svg id="Camada_1" xmlns="http://www.w3.org/2000/svg" viewBox="0 0 1747.4 638.23"><g id="_8y5su5.tif"><path d="m672.38,29.61c-6.53,23.77-13.01,47.55-19.61,71.3-36.45,131.23-72.89,262.46-109.44,393.66-4.44,15.94-8.62,32.03-14.44,47.48-12.84,34.06-38.57,52.73-73.9,59.57-24.1,4.67-48.43,6.67-72.86,6.76-77.94.28-155.89.36-233.83-.03-28.81-.15-56.52-5.79-80.64-22.97-15.34-10.92-26.01-25.2-29.16-44.09-1.85-11.08-.6-22.11,2.43-32.98,32.82-117.88,65.57-235.78,98.34-353.67,11.4-41.02,22.81-82.04,34.19-123.07.17-.63.15-1.31.21-1.96,65.63,0,131.25,0,196.88,0-.05.5-.04,1.01-.17,1.49-23.47,84.48-46.96,168.94-70.41,253.42-15.89,57.23-31.73,114.47-47.53,171.73-2.25,8.15.32,14.68,7.14,19.52,6.53,4.63,14.08,5.93,21.76,5.92,15.8-.02,31.61-.26,47.41-.83,15.58-.56,23.75-7.27,27.91-22.23,35.96-129.27,71.92-258.55,107.84-387.83,3.8-13.69,7.34-27.46,10.99-41.19,65.63,0,131.25,0,196.88,0Z"/><path d="m1709.76,29.61c-6.53,23.77-13.04,47.55-19.61,71.31-4.67,16.91-9.57,33.75-14,50.72-1.02,3.89-2.66,4.79-6.43,4.78-68.95-.11-137.89-.15-206.84.02-7.76.02-15.61.88-23.25,2.26-9.76,1.76-15.73,8.39-18.42,17.65-5.49,18.9-10.7,37.88-15.97,56.84-20.43,73.48-40.84,146.97-61.24,220.46-3.95,14.22,3.74,25.04,19.41,27.19,4.43.61,8.94.89,13.42.9,72.11.05,144.22.04,216.33.04h7.08c-2.68,9.89-5.13,19.13-7.68,28.35-8.62,31.1-17.34,62.17-25.85,93.29-1.03,3.76-2.39,5.2-6.63,5.19-104.08-.15-208.17.12-312.25-.27-28.63-.11-56.16-5.98-80.07-23.14-15.31-10.99-25.75-25.36-29.01-44.21-1.9-10.98-.42-21.8,2.55-32.48,36.62-131.54,73.2-263.1,109.82-394.64,5.32-19.09,13.33-36.77,27.34-51.28,14.23-14.73,32.24-22.21,51.8-25.68,16.79-2.98,33.88-4.26,50.84-6.32,1.96-.24,3.9-.64,5.85-.96,107.6,0,215.2,0,322.81,0Z"/><path d="m1193.07,29.61c-7.87,28.54-15.73,57.08-23.61,85.62-3.35,12.12-6.94,24.17-10,36.36-.97,3.85-2.57,4.84-6.39,4.84-81.57-.11-163.14-.09-244.71-.09-56.77,0-113.53,0-170.3,0-1.79,0-3.59,0-6.06,0,11.9-42.67,23.61-84.7,35.33-126.73,141.92,0,283.83,0,425.75,0Z"/><path d="m606.42,608.35c11.64-41.91,23.11-83.2,34.57-124.49,21.49-77.38,43.03-154.75,64.33-232.19,1.4-5.09,3.3-6.66,8.65-6.65,137.39.17,274.78.14,412.17.14h7.18c-2.53,9.12-4.9,17.65-7.27,26.19-8.86,31.89-17.81,63.76-26.46,95.7-1.11,4.12-2.92,4.93-6.82,4.93-72.61-.11-145.22-.03-217.83-.21-4.91-.01-6.65,1.51-7.92,6.13-20.82,75.6-41.85,151.14-62.85,226.69-.35,1.25-.85,2.46-1.31,3.76h-196.46Z"/></g></svg>